<?xml version="1.0" encoding="UTF-8"?>
<svg version="1.1" xmlns="http://www.w3.org/2000/svg" width="500" height="500">
<path d="M0 0 C1.03770035 -0.00315216 2.0754007 -0.00630432 3.14454651 -0.009552 C4.26852341 -0.00752777 5.39250031 -0.00550354 6.55053711 -0.00341797 C7.69952988 -0.00437469 8.84852264 -0.00533142 10.03233337 -0.00631714 C12.46426447 -0.00699852 14.89619738 -0.00514714 17.328125 -0.00097656 C21.06571504 0.00437711 24.80318518 -0.00092551 28.54077148 -0.00732422 C30.89819363 -0.00666353 33.25561569 -0.00538255 35.61303711 -0.00341797 C36.73903824 -0.0054422 37.86503937 -0.00746643 39.02516174 -0.009552 C40.05970993 -0.00639984 41.09425812 -0.00324768 42.16015625 0 C43.07567764 0.00079559 43.99119904 0.00159119 44.9344635 0.00241089 C47.01538086 0.12939453 47.01538086 0.12939453 48.01538086 1.12939453 C49.61734463 1.30834876 51.22029838 1.48044077 52.82592773 1.62280273 C92.38751129 5.23293347 136.62681876 20.70278456 167.57788086 46.19189453 C169.39805014 47.63869576 171.2857765 49.00123467 173.20288086 50.31689453 C192.40485216 63.59507318 210.4376333 81.91616821 223.65161133 101.14599609 C225.05776286 103.1910328 226.50533477 105.20225767 227.95678711 107.21533203 C239.94352316 124.17765751 250.25393396 143.47151378 257.01538086 163.12939453 C257.25659668 163.80711914 257.4978125 164.48484375 257.74633789 165.18310547 C262.2425471 177.91337058 264.99850874 190.84876211 267.42456055 204.11425781 C267.74342536 205.74152248 268.07992911 207.36771681 268.51342773 208.96826172 C270.39332055 216.20939286 270.38077005 223.42215154 270.42163086 230.86376953 C270.43011299 231.92241589 270.43011299 231.92241589 270.43876648 233.00244904 C270.46864682 236.75766946 270.48715639 240.51273906 270.49584961 244.26806641 C270.50451709 247.30698029 270.53190449 250.34472558 270.57788086 253.38330078 C271.16856553 293.23641763 262.5263956 331.49518487 243.35473633 366.66992188 C242.03423368 369.09477489 240.72936699 371.52757699 239.42553711 373.96142578 C234.82710103 382.47316183 230.03095479 390.51859756 224.01538086 398.12939453 C223.02924805 399.38429688 223.02924805 399.38429688 222.02319336 400.66455078 C220.72933181 402.2932053 219.42711237 403.91527208 218.11474609 405.52905273 C216.8085853 407.14690581 215.51509879 408.7751819 214.24169922 410.41894531 C209.09841014 417.02653313 203.50091009 423.02928583 197.57788086 428.94189453 C197.09971924 429.420177 196.62155762 429.89845947 196.12890625 430.39123535 C188.24198867 438.25000874 180.01632741 445.34184419 170.91772461 451.77392578 C169.07028955 453.09027068 167.25929851 454.44498269 165.45288086 455.81689453 C157.4342717 461.84076281 148.99984202 466.54470307 140.06323242 471.06787109 C138.16195208 472.05341794 136.30145384 473.08564464 134.44506836 474.15283203 C117.28268064 483.94751588 98.17589745 490.10541789 78.96606445 494.44873047 C77.03309771 494.89462748 75.10574599 495.36578972 73.18579102 495.86474609 C55.23430353 500.50152643 37.457334 500.58253844 19.01538086 500.56689453 C17.77474884 500.56711609 16.53411682 500.56733765 15.25588989 500.56756592 C11.65458316 500.56072187 8.05401833 500.53525988 4.45288086 500.50048828 C3.37868393 500.49489395 2.304487 500.48929962 1.19773865 500.48353577 C-6.02854422 500.37308662 -12.89194614 499.48323583 -19.98461914 498.12939453 C-21.92852567 497.78115789 -23.8725238 497.43343179 -25.81665039 497.08642578 C-63.30902143 490.02958713 -100.88598316 475.70858183 -130.55883789 451.08642578 C-133.12476937 449.01632647 -135.78144614 447.14094464 -138.48461914 445.25439453 C-143.38835604 441.73981823 -147.54024281 437.79004392 -151.69555664 433.42626953 C-153.97408808 431.04414449 -153.97408808 431.04414449 -156.77368164 428.95751953 C-157.50329102 428.35423828 -158.23290039 427.75095703 -158.98461914 427.12939453 C-158.98461914 426.46939453 -158.98461914 425.80939453 -158.98461914 425.12939453 C-159.64461914 425.12939453 -160.30461914 425.12939453 -160.98461914 425.12939453 C-160.98461914 424.46939453 -160.98461914 423.80939453 -160.98461914 423.12939453 C-161.64461914 423.12939453 -162.30461914 423.12939453 -162.98461914 423.12939453 C-162.98461914 422.46939453 -162.98461914 421.80939453 -162.98461914 421.12939453 C-163.64461914 421.12939453 -164.30461914 421.12939453 -164.98461914 421.12939453 C-168.19259322 417.63911873 -171.05946246 413.85811184 -173.98461914 410.12939453 C-174.62012695 409.32373047 -175.25563477 408.51806641 -175.91040039 407.68798828 C-179.98461914 402.40803415 -179.98461914 402.40803415 -179.98461914 400.12939453 C-180.64461914 400.12939453 -181.30461914 400.12939453 -181.98461914 400.12939453 C-183.80722546 397.7476138 -185.50426441 395.36677688 -187.17211914 392.87939453 C-187.91522339 391.78111328 -187.91522339 391.78111328 -188.67333984 390.66064453 C-195.66345959 380.23979815 -201.54213845 369.39105172 -207.01147461 358.11572266 C-207.92022404 356.2608342 -208.85951498 354.42099577 -209.80102539 352.58251953 C-217.04038402 338.00662967 -221.22948021 322.2841466 -224.73461914 306.44189453 C-224.9210498 305.60207031 -225.10748047 304.76224609 -225.29956055 303.89697266 C-225.9118996 300.98190923 -226.45705338 298.06107637 -226.98461914 295.12939453 C-227.11063507 294.44673523 -227.236651 293.76407593 -227.3664856 293.06072998 C-229.87054572 279.21382813 -230.50882902 265.68252822 -230.42211914 251.62939453 C-230.41907776 250.58001709 -230.41603638 249.53063965 -230.41290283 248.44946289 C-230.34139357 231.72074411 -229.49588478 215.53918699 -225.98461914 199.12939453 C-225.65518311 197.57889404 -225.65518311 197.57889404 -225.3190918 195.99707031 C-221.1046288 176.78591945 -215.64021216 157.78841655 -206.2331543 140.4453125 C-204.76350173 137.71924206 -203.33432715 134.97321652 -201.90258789 132.22705078 C-196.27476028 121.52481656 -190.66759824 111.49518054 -182.98461914 102.12939453 C-182.160654 101.05113152 -181.3418654 99.96889823 -180.52758789 98.88330078 C-179.8917981 98.03868286 -179.8917981 98.03868286 -179.24316406 97.17700195 C-178.82784424 96.6250415 -178.41252441 96.07308105 -177.98461914 95.50439453 C-164.50273343 77.66898323 -148.02593765 61.06303713 -129.65698242 48.31103516 C-128.18095937 47.26812252 -126.74868615 46.1638786 -125.32446289 45.05126953 C-116.83384378 38.43100867 -107.22401895 33.63123387 -97.74169922 28.60522461 C-94.93440345 27.10251471 -92.15390728 25.55622179 -89.37133789 24.00830078 C-84.62020257 21.41600728 -79.82875399 19.18029963 -74.79711914 17.19189453 C-73.9539917 16.85834961 -73.11086426 16.52480469 -72.2421875 16.18115234 C-52.21407453 8.46553853 -30.59755237 2.383261 -9.06665039 1.30517578 C-5.83618759 1.03243502 -3.40980539 0.00296057 0 0 Z " fill="#2B2B2B" transform="translate(229.984619140625,-0.12939453125)"/>
<path d="M0 0 C9.1313156 7.13494777 16.39912791 15.1761711 22.01953125 25.359375 C22.4784375 26.14570313 22.93734375 26.93203125 23.41015625 27.7421875 C32.47205072 44.28287439 33.58172405 64.11584502 28.99609375 82.22265625 C24.70492135 96.00590201 18.12980674 107.08003136 8.01953125 117.359375 C7.33117187 118.060625 6.6428125 118.761875 5.93359375 119.484375 C-9.29115322 133.97335353 -29.69106173 140.01540823 -50.40625 139.62890625 C-70.24700446 138.7793654 -89.57330008 128.32414541 -103.16796875 114.234375 C-119.30985972 95.65838936 -123.31809972 74.41756863 -121.98046875 50.359375 C-119.95745364 31.56265356 -108.73336739 14.3379137 -94.55859375 2.26953125 C-65.86476251 -18.98998917 -29.52980763 -20.58959064 0 0 Z " fill="#606060" transform="translate(295.98046875,187.640625)"/>
<path d="M0 0 C1.28519531 -0.00773438 2.57039063 -0.01546875 3.89453125 -0.0234375 C14.82667695 -0.00124025 25.13753189 1.10305518 35.4375 4.875 C36.50907349 5.2630481 36.50907349 5.2630481 37.60229492 5.65893555 C64.77733211 15.85595326 86.55062449 35.68407803 99 61.875 C110.56502169 87.35573818 112.17366645 117.27282852 102.56152344 143.58569336 C96.30956345 159.86798505 87.48770069 173.02451511 75.125 185.25 C74.42246094 185.97445312 73.71992188 186.69890625 72.99609375 187.4453125 C62.12571412 197.95405523 47.41622696 205.66323882 33.125 210.25 C32.49319824 210.45737793 31.86139648 210.66475586 31.21044922 210.87841797 C12.47149691 216.77073084 -11.09883131 216.97159369 -29.875 211.25 C-30.97328125 210.94449219 -32.0715625 210.63898438 -33.203125 210.32421875 C-46.90981436 206.02131969 -60.51995988 198.43527412 -70.76953125 188.3203125 C-72.92351915 186.12875415 -72.92351915 186.12875415 -75.73828125 183.98046875 C-91.04596676 171.35060383 -100.15484651 151.08254258 -104.875 132.25 C-105.1531958 131.17552612 -105.1531958 131.17552612 -105.43701172 130.0793457 C-107.19215582 122.49746766 -107.272031 114.93926629 -107.25 107.1875 C-107.24978851 106.5019101 -107.24957703 105.81632019 -107.24935913 105.10995483 C-107.16107934 76.43408573 -95.74168247 51.10344638 -75.625 30.5625 C-55.36287518 10.54225816 -28.30414725 -0.16931693 0 0 Z M-59.51953125 58.1953125 C-73.81306793 76.73187251 -77.66595577 97.27585423 -75.875 120.25 C-73.14099223 138.65622404 -62.48441543 155.3936227 -48.453125 167.33984375 C-31.46432717 179.92699851 -10.84150141 187.02436634 10.34814453 183.92480469 C31.71138414 180.05938911 50.09247287 169.8792118 63.2578125 152.421875 C75.2419384 134.26410848 80.40095723 112.62984845 76.4765625 91.03515625 C73.24229533 77.86311943 67.23724084 66.29003264 58.125 56.25 C57.37476563 55.40695313 56.62453125 54.56390625 55.8515625 53.6953125 C41.90225955 38.84314205 22.18629975 30.65469765 1.90112305 29.8449707 C-21.65411122 29.48940991 -44.11958663 40.51842853 -59.51953125 58.1953125 Z " fill="#111111" transform="translate(249.875,142.75)"/>
<path d="M0 0 C24.08890542 21.31668298 39.54290622 52.30313436 41.80615234 84.4206543 C43.43141229 121.77926705 32.53707311 155.85060108 7.30615234 183.6706543 C-10.36562239 202.65302245 -32.86754066 215.62324083 -58.19384766 221.4206543 C-58.97147461 221.60539307 -59.74910156 221.79013184 -60.55029297 221.98046875 C-68.25329606 223.61073012 -75.88950355 223.75968214 -83.72607422 223.73632812 C-85.92677938 223.73317872 -88.126121 223.75667475 -90.32666016 223.78198242 C-99.98631821 223.82530079 -108.80129232 222.72541443 -118.19384766 220.4206543 C-118.9846875 220.22721436 -119.77552734 220.03377441 -120.59033203 219.83447266 C-154.32554956 210.94512582 -181.54476684 188.29482517 -199.44384766 158.7331543 C-206.60548868 145.65082467 -211.94688967 131.18372536 -214.19384766 116.4206543 C-214.37560547 115.22827148 -214.55736328 114.03588867 -214.74462891 112.80737305 C-218.90681262 78.09500834 -210.15274866 44.43101263 -189.07666016 16.62768555 C-167.2955353 -10.85063744 -137.5384441 -28.51894723 -102.63134766 -32.8293457 C-64.73666916 -36.96942666 -28.71321552 -24.4977614 0 0 Z M-119.19384766 -7.5793457 C-119.82742187 -7.36503906 -120.46099609 -7.15073242 -121.11376953 -6.92993164 C-135.35614864 -2.0031872 -148.01042152 5.2831601 -159.19384766 15.4206543 C-159.68095215 15.85861328 -160.16805664 16.29657227 -160.66992188 16.74780273 C-178.85709703 33.30496766 -192.88096742 57.68168424 -194.38671875 82.61425781 C-194.87785362 103.55595095 -194.40931787 123.50744087 -184.19384766 142.4206543 C-183.68080078 143.4622168 -183.16775391 144.5037793 -182.63916016 145.5769043 C-178.68013103 153.3854963 -173.93544428 159.84063599 -168.19384766 166.4206543 C-167.44167969 167.37198242 -167.44167969 167.37198242 -166.67431641 168.3425293 C-151.7590458 187.08333041 -125.69247 199.4057156 -102.19384766 202.4206543 C-70.5373227 204.65466294 -41.40492528 198.53799374 -16.86962891 177.65112305 C-13.87171463 175.0086817 -11.02368365 172.24209315 -8.19384766 169.4206543 C-7.49001953 168.7400293 -6.78619141 168.0594043 -6.06103516 167.3581543 C13.60762362 146.97282374 21.34295773 119.49346322 21.22827148 91.90869141 C20.60940923 61.62096416 6.99825576 35.41013458 -14.64306641 14.6003418 C-34.37632431 -3.5939082 -60.4174494 -11.9914738 -86.88134766 -11.9543457 C-87.86822067 -11.95352997 -87.86822067 -11.95352997 -88.87503052 -11.95269775 C-99.5558802 -11.91220502 -109.09662187 -11.03818262 -119.19384766 -7.5793457 Z " fill="#3B3B3B" transform="translate(337.19384765625,154.579345703125)"/>
<path d="M0 0 C9.1313156 7.13494777 16.39912791 15.1761711 22.01953125 25.359375 C22.4784375 26.14570313 22.93734375 26.93203125 23.41015625 27.7421875 C32.47205072 44.28287439 33.58172405 64.11584502 28.99609375 82.22265625 C24.70492135 96.00590201 18.12980674 107.08003136 8.01953125 117.359375 C7.33117187 118.060625 6.6428125 118.761875 5.93359375 119.484375 C-9.29115322 133.97335353 -29.69106173 140.01540823 -50.40625 139.62890625 C-70.24700446 138.7793654 -89.57330008 128.32414541 -103.16796875 114.234375 C-119.30985972 95.65838936 -123.31809972 74.41756863 -121.98046875 50.359375 C-119.95745364 31.56265356 -108.73336739 14.3379137 -94.55859375 2.26953125 C-65.86476251 -18.98998917 -29.52980763 -20.58959064 0 0 Z M-102.8125 16.53125 C-116.21528912 34.01524878 -120.35883761 53.99324091 -117.69628906 75.67333984 C-114.33078953 94.53547598 -102.98098018 110.82631847 -87.98046875 122.359375 C-78.96983919 128.3427581 -69.50642315 131.9522769 -58.98046875 134.359375 C-58.15804687 134.55273438 -57.335625 134.74609375 -56.48828125 134.9453125 C-37.93083172 138.00931507 -18.88930974 132.69738687 -3.53125 122.25390625 C12.86353599 110.07707439 23.89567832 92.75713615 27.01953125 72.359375 C28.88604096 51.46724435 23.80279767 32.50851649 10.9921875 15.69921875 C-1.79186621 0.74210708 -19.50193117 -8.75695282 -39.09179688 -10.86816406 C-63.76411419 -12.67262517 -86.72510614 -2.03331779 -102.8125 16.53125 Z " fill="#606060" transform="translate(295.98046875,187.640625)"/>
<path d="M0 0 C15.49759545 11.4081911 26.81173863 28.47804078 29.78710938 47.65478516 C32.13026358 69.26271939 27.34145658 89.37873972 13.86914062 106.68994141 C2.2818682 119.85371348 -12.52007593 128.64143229 -29.81835938 131.75244141 C-30.93210937 131.97931641 -32.04585938 132.20619141 -33.19335938 132.43994141 C-53.51833368 134.19209436 -71.9589381 129.32053122 -88.25585938 116.87744141 C-102.68510728 104.40593065 -111.47632925 89.55331603 -114.81835938 70.75244141 C-116.23829793 48.82299646 -112.73298036 29.07775944 -97.99023438 12.04931641 C-85.77128978 -0.8728768 -73.1151801 -8.29208409 -55.81835938 -12.24755859 C-55.02300781 -12.43833984 -54.22765625 -12.62912109 -53.40820312 -12.82568359 C-34.60238667 -15.88907451 -15.57691469 -10.68716891 0 0 Z M-94.94335938 13.87744141 C-107.4608157 28.62472801 -113.05637475 46.50692959 -111.81835938 65.75244141 C-109.44870659 83.3475798 -102.14805805 101.42565752 -87.81835938 112.75244141 C-70.79573837 124.96617198 -52.88199457 131.37014782 -31.71679688 128.46386719 C-12.47578802 125.05736728 3.90104926 114.89377629 15.21289062 98.88916016 C18.45748396 93.71969894 20.99873068 88.44759748 23.18164062 82.75244141 C23.52195312 81.86814453 23.86226562 80.98384766 24.21289062 80.07275391 C29.67072744 62.63799742 27.04493929 43.00624792 18.93164062 27.00244141 C8.92235148 9.58121031 -6.00223175 -2.12773127 -25.36914062 -7.70458984 C-51.60195368 -13.52015765 -76.52456173 -5.3591793 -94.94335938 13.87744141 Z " fill="#F2F2F2" transform="translate(292.818359375,190.24755859375)"/>
<path d="M0 0 C1.71416927 1.32582212 3.42319178 2.65834828 5.125 4 C5.76824219 4.4434375 6.41148437 4.886875 7.07421875 5.34375 C11.613692 8.59722235 12.23190167 11.73071983 13.125 17 C11.125 15.625 11.125 15.625 9.125 14 C9.125 13.34 9.125 12.68 9.125 12 C8.465 12 7.805 12 7.125 12 C7.125 11.34 7.125 10.68 7.125 10 C6.465 10 5.805 10 5.125 10 C5.125 9.34 5.125 8.68 5.125 8 C4.25875 7.59201172 4.25875 7.59201172 3.375 7.17578125 C1.12843412 6.00179457 -0.81748663 4.66438933 -2.875 3.1875 C-18.05429464 -6.94851108 -35.77465113 -9.89546652 -53.50830078 -6.6171875 C-70.14625182 -3.0289889 -84.18097418 7.19726714 -93.9375 20.9609375 C-96.81517035 25.47470268 -99.04827141 29.97112365 -100.875 35 C-101.19339844 35.86367187 -101.51179687 36.72734375 -101.83984375 37.6171875 C-105.75315027 50.34895895 -105.23723734 66.18147014 -101.875 79 C-106.07226113 74.80273887 -106.00165662 68.60909456 -106.0703125 62.96875 C-106.0571641 60.81241271 -106.03352813 58.6561167 -106 56.5 C-105.99097656 55.39140625 -105.98195312 54.2828125 -105.97265625 53.140625 C-105.94926167 50.42685408 -105.91648175 47.71354455 -105.875 45 C-106.535 45 -107.195 45 -107.875 45 C-104.46500697 27.26803623 -95.418696 11.87501593 -80.875 1 C-56.41831042 -15.16628633 -24.61202001 -17.63695361 0 0 Z " fill="#8E8E8E" transform="translate(289.875,193)"/>
<path d="M0 0 C1.3409878 4.31284303 0.13962794 7.35018482 -1.25 11.5 C-9.12167031 37.10825474 -10.38694249 67.87159892 -4 94 C-3.79600586 94.84272461 -3.59201172 95.68544922 -3.38183594 96.55371094 C-0.38709964 108.55445188 3.52989612 119.90752569 9 131 C9.31195313 131.63631348 9.62390625 132.27262695 9.9453125 132.92822266 C29.15766989 171.6165216 63.13881972 201.80958435 104 216 C115.4188803 219.66250759 127.04946895 222.76484444 139 224 C139.99128906 224.10957031 140.98257813 224.21914063 142.00390625 224.33203125 C155.92590003 225.63885169 169.75727575 225.5004687 183.58203125 223.4375 C186.76839579 223.02964534 189.79263958 222.9214123 193 223 C193 223.33 193 223.66 193 224 C146.99485881 232.28388394 101.13650206 223.89943265 62.41577148 197.2644043 C56.68319717 193.21682388 51.35391352 188.86392321 46.22265625 184.06640625 C44.22461334 182.2088233 42.16872803 180.48178749 40.0625 178.75 C10.83391052 153.1749842 -6.58120795 111.0176251 -10 73 C-11.305936 47.91623425 -9.26012493 23.51477788 0 0 Z " fill="#141414" transform="translate(91,192)"/>
<path d="M0 0 C1.04849121 0.24145752 1.04849121 0.24145752 2.11816406 0.48779297 C34.56087921 8.30920716 63.868153 29.34039592 81.3828125 57.7890625 C92.26545011 76.14308893 100.553974 97.43145714 101 119 C101.03867187 120.13050781 101.07734375 121.26101562 101.1171875 122.42578125 C101.6779189 152.42491099 92.8734062 183.99541404 73 207 C73 203.02874446 74.895246 200.90268544 77.0625 197.75 C95.77186882 169.54566343 102.66730791 134.23236286 96 101 C91.10496346 78.80545933 80.93092715 59.12585474 66 42 C65.42378906 41.2678125 64.84757812 40.535625 64.25390625 39.78125 C48.37563376 20.26052302 22.25123799 7.27374533 -2 2 C-2.83402344 1.80921875 -3.66804688 1.6184375 -4.52734375 1.421875 C-20.90568518 -2.11120327 -37.41096054 -1.13707002 -54 0 C-54 -0.33 -54 -0.66 -54 -1 C-36.07174713 -4.42656028 -17.77390307 -4.09572549 0 0 Z " fill="#151515" transform="translate(280,123)"/>
<path d="M0 0 C0 4.10171268 -2.01912901 6.70531395 -4.0625 10.125 C-21.07478933 39.64345736 -26.27874062 75.10075885 -17.39794922 108.24707031 C-7.78294848 142.05442124 13.7821525 169.77460338 44.39233398 187.16870117 C66.04342505 199.04279803 89.6282584 202.78301422 114 204 C114 204.33 114 204.66 114 205 C76.3624074 205.77603284 42.35253659 194.2028678 15 168 C14.31550781 167.36707031 13.63101563 166.73414063 12.92578125 166.08203125 C-9.85530789 144.37509955 -23.22254361 112.26575234 -24.203125 80.9765625 C-24.6160168 53.0739057 -18.83472256 21.82229924 0 0 Z " fill="#161616" transform="translate(144,175)"/>
<path d="M0 0 C1.11707396 3.35122189 0.89692857 4.07711182 -0.14453125 7.31640625 C-0.54188477 8.58774414 -0.54188477 8.58774414 -0.94726562 9.88476562 C-1.23279297 10.76841797 -1.51832031 11.65207031 -1.8125 12.5625 C-13.82463329 50.12514741 -9.11841154 90.32122206 8.484375 125.26953125 C11.56499262 131.17482747 14.9915248 136.6689729 19 142 C19.62261719 142.83144531 20.24523437 143.66289062 20.88671875 144.51953125 C22.86588744 147.06876476 24.90929563 149.54145178 27 152 C27.81082031 152.95777344 28.62164062 153.91554688 29.45703125 154.90234375 C36.19389724 162.65701866 43.66020916 169.0236848 52 175 C52.55526367 175.39815918 53.11052734 175.79631836 53.68261719 176.20654297 C66.5111892 185.24261629 81.07289132 192.20319878 96 197 C91.91020965 198.69058166 89.18423471 197.18769352 85.25 195.5625 C71.42665455 189.8054632 58.81107336 183.25927705 47 174 C46.44715332 173.56816406 45.89430664 173.13632812 45.32470703 172.69140625 C13.58666126 147.59144398 -5.66524684 111.57290299 -10.61328125 71.47265625 C-13.02591003 47.1527126 -9.51752353 22.5415031 0 0 Z " fill="#151515" transform="translate(112,194)"/>
<path d="M0 0 C2.37932258 2.17876009 3.83603094 4.28028331 5.3125 7.140625 C5.74240234 7.956521 6.17230469 8.77241699 6.61523438 9.61303711 C7.07220703 10.48323486 7.52917969 11.35343262 8 12.25 C12.95849019 21.45945216 18.46501631 29.84341504 25 38 C25.68860107 38.85996582 25.68860107 38.85996582 26.39111328 39.73730469 C35.93128864 52.41380893 35.93128864 52.41380893 48 62 C48 62.66 48 63.32 48 64 C48.5465625 64.23976563 49.093125 64.47953125 49.65625 64.7265625 C52.56692938 66.30803163 54.92873135 68.2841526 57.5 70.375 C95.8933701 100.52729863 144.27126819 112.14593309 192.41357422 107.68359375 C196.53456631 107.17192017 200.59244576 106.50701294 204.65625 105.65625 C207.55680696 105.08698181 210.0601806 104.86431603 213 105 C201.5016195 112.04228055 182.77259152 110.53094972 169.75 110.4375 C168.85812988 110.43479095 167.96625977 110.43208191 167.04736328 110.42929077 C153.03852688 110.36495106 139.62346581 109.49194564 126 106 C124.87561523 105.72712158 124.87561523 105.72712158 123.72851562 105.44873047 C99.74862832 99.52783597 76.50761819 88.06626109 57 73 C56.12988281 72.35289062 55.25976562 71.70578125 54.36328125 71.0390625 C32.40685072 54.02535063 15.62145213 32.58132179 3 8 C2.41605469 6.88238281 1.83210938 5.76476562 1.23046875 4.61328125 C0 2 0 2 0 0 Z " fill="#131313" transform="translate(80,326)"/>
<path d="M0 0 C2.13604308 3.20406462 2.24208908 3.99600747 2.1953125 7.66796875 C2.18886719 8.56064453 2.18242187 9.45332031 2.17578125 10.37304688 C2.15902344 11.30181641 2.14226562 12.23058594 2.125 13.1875 C2.11597656 14.12787109 2.10695313 15.06824219 2.09765625 16.03710938 C2.07409056 18.35832968 2.04119116 20.67903644 2 23 C2.66 23 3.32 23 4 23 C1.22703667 41.48642221 -7.31271202 57.88865089 -22.375 69.375 C-28.88660228 73.81178164 -36.19279838 78.3942635 -44 80 C-44 79.34 -44 78.68 -44 78 C-46.64 78.33 -49.28 78.66 -52 79 C-48.74312741 77.26561725 -45.41060131 76.04897471 -41.9375 74.8125 C-26.02088181 68.71677388 -13.67727272 58.25800027 -6 43 C-1.40180353 32.30476184 0.15945715 22.18527571 0.0625 10.625 C0.05798828 9.60277344 0.05347656 8.58054688 0.04882812 7.52734375 C0.037103 5.01816806 0.02069176 2.5091151 0 0 Z " fill="#818181" transform="translate(315,236)"/>
<path d="M0 0 C2.25624743 2.91150492 4.2295298 5.9049705 6.125 9.0625 C6.64320313 9.91972656 7.16140625 10.77695312 7.6953125 11.66015625 C9 14 9 14 10 17 C10.66 17 11.32 17 12 17 C12.825 18.010625 13.65 19.02125 14.5 20.0625 C24.87326002 32.46042041 41.26086383 38.53091723 57 40 C62.33819873 40.27201744 67.66063946 40.19170576 73 40 C73 40.33 73 40.66 73 41 C67.63904667 42.12862175 62.44693314 42.09688221 57 42 C57 42.66 57 43.32 57 44 C37.8805664 43.24726639 21.55594342 34.38702056 8.625 20.5 C3.13752095 14.03696912 0.60348651 8.44881119 0 0 Z " fill="#8C8C8C" transform="translate(189,275)"/>
<path d="M0 0 C0.93005859 0.60134766 0.93005859 0.60134766 1.87890625 1.21484375 C4.90895466 3.15989666 7.95286357 5.08182585 11 7 C12.09957031 7.69867188 13.19914063 8.39734375 14.33203125 9.1171875 C57.18144278 35.90935854 104.35834413 43.36329597 153.90136719 37.36376953 C158.26213269 36.85182968 162.62904789 36.41483859 167 36 C164.24098939 37.50854892 161.87403605 38.34562547 158.76953125 38.81640625 C157.96580078 38.94080078 157.16207031 39.06519531 156.33398438 39.19335938 C155.50189453 39.31517578 154.66980469 39.43699219 153.8125 39.5625 C152.99974609 39.68818359 152.18699219 39.81386719 151.34960938 39.94335938 C148.90208455 40.31525853 146.45269039 40.66394022 144 41 C143.27474121 41.10006348 142.54948242 41.20012695 141.80224609 41.30322266 C93.00462096 47.40980258 41.52678339 32.73732021 2 4 C0.0859375 2.2109375 0.0859375 2.2109375 -1 1 C-0.67 0.67 -0.34 0.34 0 0 Z " fill="#141414" transform="translate(129,411)"/>
<path d="M0 0 C4.0498689 1.50078941 7.67518689 3.44860104 11.4375 5.5625 C35.15260739 18.4432338 60.40237765 25.30919714 87 29 C88.81504028 29.26804443 88.81504028 29.26804443 90.66674805 29.54150391 C95.65197618 30.15481005 100.60869738 30.12511092 105.625 30.09765625 C106.61250244 30.0962413 107.60000488 30.09482635 108.61743164 30.09336853 C111.74498636 30.08780927 114.87246723 30.07526446 118 30.0625 C120.13150938 30.05747973 122.26301988 30.05291775 124.39453125 30.04882812 C129.596379 30.03785322 134.79818422 30.02115612 140 30 C140 30.33 140 30.66 140 31 C134.29428967 31.80902165 128.74749482 32.17099662 122.98828125 32.203125 C122.14621124 32.21018463 121.30414124 32.21724426 120.43655396 32.22451782 C85.56462717 32.45047157 85.56462717 32.45047157 70 29 C69.08154297 28.80664062 68.16308594 28.61328125 67.21679688 28.4140625 C47.23358621 24.12911197 28.22797133 17.50984299 10.0625 8.125 C9.16184814 7.6606958 8.26119629 7.1963916 7.33325195 6.71801758 C1.12828356 3.38485069 1.12828356 3.38485069 0 0 Z " fill="#141414" transform="translate(138,436)"/>
<path d="M0 0 C-0.99 0.99 -0.99 0.99 -2 2 C-2.52464844 1.53851563 -3.04929687 1.07703125 -3.58984375 0.6015625 C-21.31489975 -14.32169596 -43.4043545 -24.1928119 -66 -29 C-66.88486084 -29.18836426 -67.76972168 -29.37672852 -68.68139648 -29.57080078 C-79.18427068 -31.49459037 -89.68042318 -31.2227535 -100.3125 -31.125 C-102.22851092 -31.1149456 -104.14452698 -31.10582412 -106.06054688 -31.09765625 C-110.70716034 -31.07584803 -115.35352199 -31.04145509 -120 -31 C-120 -31.33 -120 -31.66 -120 -32 C-76.83286947 -39.13085342 -34.24529879 -26.92530219 0 0 Z " fill="#151515" transform="translate(346,135)"/>
<path d="M0 0 C7.45089971 5.97642024 7.45089971 5.97642024 8.72387695 11.0324707 C8.80637695 12.1462207 8.88887695 13.2599707 8.97387695 14.4074707 C6.97387695 13.0324707 6.97387695 13.0324707 4.97387695 11.4074707 C4.97387695 10.7474707 4.97387695 10.0874707 4.97387695 9.4074707 C4.31387695 9.4074707 3.65387695 9.4074707 2.97387695 9.4074707 C2.97387695 8.7474707 2.97387695 8.0874707 2.97387695 7.4074707 C2.31387695 7.4074707 1.65387695 7.4074707 0.97387695 7.4074707 C0.97387695 6.7474707 0.97387695 6.0874707 0.97387695 5.4074707 C0.10762695 4.99948242 0.10762695 4.99948242 -0.77612305 4.58325195 C-3.02268893 3.40926527 -4.96860968 2.07186004 -7.02612305 0.5949707 C-24.93708768 -11.36511969 -43.66604001 -11.39047936 -64.02612305 -8.5925293 C-47.06471705 -19.90013329 -14.72714947 -11.19979308 0 0 Z " fill="#929292" transform="translate(294.026123046875,195.592529296875)"/>
<path d="M0 0 C2.13604308 3.20406462 2.24208908 3.99600747 2.1953125 7.66796875 C2.18564453 9.00698242 2.18564453 9.00698242 2.17578125 10.37304688 C2.15902344 11.30181641 2.14226562 12.23058594 2.125 13.1875 C2.11597656 14.12787109 2.10695313 15.06824219 2.09765625 16.03710938 C2.07409056 18.35832968 2.04119116 20.67903644 2 23 C2.66 23 3.32 23 4 23 C2.39143839 33.08031941 -0.1244214 42.51038847 -6 51 C-8.7265625 52.390625 -8.7265625 52.390625 -11 53 C-9.75280791 49.73327211 -8.3260772 46.73752059 -6.625 43.6875 C0.39899866 29.49360359 0.55716163 15.49766508 0 0 Z " fill="#929292" transform="translate(315,236)"/>
<path d="M0 0 C0.66 0 1.32 0 2 0 C2.01981934 0.67466309 2.03963867 1.34932617 2.06005859 2.04443359 C2.1563811 5.15495861 2.2656181 8.26490789 2.375 11.375 C2.4059375 12.43589844 2.436875 13.49679688 2.46875 14.58984375 C2.71376291 21.24602788 3.45532884 27.51818952 5 34 C5.66 34 6.32 34 7 34 C7.99 39.445 7.99 39.445 9 45 C8.34 45 7.68 45 7 45 C0.40645167 31.00499822 -3.42459663 15.41068485 0 0 Z " fill="#717171" transform="translate(182,238)"/>
<path d="M0 0 C0.33 0.66 0.66 1.32 1 2 C0.33975122 3.33652302 -0.328951 4.66886685 -1 6 C-5.79856861 22.09446915 -7.30430358 39.58984259 -3 56 C-7.19726113 51.80273887 -7.12665662 45.60909456 -7.1953125 39.96875 C-7.1821641 37.81241271 -7.15852813 35.6561167 -7.125 33.5 C-7.11597656 32.39140625 -7.10695312 31.2828125 -7.09765625 30.140625 C-7.07426167 27.42685408 -7.04148175 24.71354455 -7 22 C-7.66 22 -8.32 22 -9 22 C-5.72938444 7.35656214 -5.72938444 7.35656214 -2 1 C-1.34 0.67 -0.68 0.34 0 0 Z " fill="#9C9C9C" transform="translate(191,216)"/>
<path d="M0 0 C0 0.66 0 1.32 0 2 C-1.01578125 1.855625 -2.0315625 1.71125 -3.078125 1.5625 C-15.66165119 -0.16516255 -26.58919391 -0.68832929 -39.06640625 2.44140625 C-42 3 -42 3 -45 2 C-44.67 1.34 -44.34 0.68 -44 0 C-29.32548084 -4.81059425 -14.7179899 -3.86347235 0 0 Z " fill="#5E5E5E" transform="translate(272,184)"/>
<path d="M0 0 C2.5 0.25 2.5 0.25 4.5 2.25 C4.75 5.25 4.75 5.25 4.5 8.25 C2.5 10.25 2.5 10.25 0.0625 10.5625 C-2.5 10.25 -2.5 10.25 -4.375 9.0625 C-5.5 7.25 -5.5 7.25 -5.3125 4.6875 C-4.22827241 1.43481722 -3.47807945 0.34780795 0 0 Z " fill="#131313" transform="translate(250.5,244.75)"/>
<path d="M0 0 C0.66 0.66 1.32 1.32 2 2 C-0.56126064 3.294174 -3.12393358 4.58540784 -5.6875 5.875 C-6.40873047 6.23980469 -7.12996094 6.60460937 -7.87304688 6.98046875 C-17.86647727 12 -17.86647727 12 -22 12 C-17.70453259 7.13180361 -12.64934204 4.13239941 -7 1 C-6.30003906 0.59136719 -5.60007813 0.18273437 -4.87890625 -0.23828125 C-3 -1 -3 -1 0 0 Z " fill="#8B8B8B" transform="translate(228,186)"/>
<path d="M0 0 C0.66 0.33 1.32 0.66 2 1 C-4.04202483 7.64194219 -10.12773651 14.23551745 -16.4375 20.625 C-16.92057617 21.1209668 -17.40365234 21.61693359 -17.90136719 22.12792969 C-20.71335354 24.94772169 -23.49715598 27.10553989 -27 29 C-25.37843976 24.89891114 -22.4232297 22.16851833 -19.3359375 19.140625 C-18.78386627 18.59138367 -18.23179504 18.04214233 -17.66299438 17.47625732 C-15.90498185 15.72940707 -14.1401311 13.98965399 -12.375 12.25 C-11.1792292 11.06426409 -9.98391135 9.8780712 -8.7890625 8.69140625 C-5.86459747 5.78894915 -2.93398126 2.8928359 0 0 Z " fill="#8D8D8D" transform="translate(86,59)"/>
<path d="M0 0 C2.80592657 2.44493017 4.11593244 4.99579963 5.625 8.375 C6.05039062 9.31085938 6.47578125 10.24671875 6.9140625 11.2109375 C7.93003191 13.8202978 8.54887492 16.24312449 9 19 C8.34 19 7.68 19 7 19 C6.67 19.99 6.34 20.98 6 22 C5.59007812 20.90300781 5.18015625 19.80601562 4.7578125 18.67578125 C4.21357114 17.22134314 3.66929867 15.76691667 3.125 14.3125 C2.72087891 13.2306543 2.72087891 13.2306543 2.30859375 12.12695312 C0.91331397 8.40053517 -0.50202917 4.68675345 -2 1 C-1.34 0.67 -0.68 0.34 0 0 Z " fill="#818181" transform="translate(308,213)"/>
<path d="M0 0 C-0.33 0.66 -0.66 1.32 -1 2 C-0.34 2.33 0.32 2.66 1 3 C-0.2375 2.71125 -1.475 2.4225 -2.75 2.125 C-17.63591259 -1.15177321 -30.03689139 -1.05627996 -45 1 C-33.81594871 -6.45603419 -12.36830126 -4.12276709 0 0 Z " fill="#ADADAD" transform="translate(275,186)"/>
<path d="M0 0 C3.3 0 6.6 0 10 0 C10 0.66 10 1.32 10 2 C1.51168642 4.56943546 -6.14593366 5.38558031 -15 5 C-15 4.34 -15 3.68 -15 3 C-10.05 2.34 -5.1 1.68 0 1 C0 0.67 0 0.34 0 0 Z " fill="#666666" transform="translate(261,314)"/>
<path d="M0 0 C0.66 0 1.32 0 2 0 C0.62815653 4.06498881 -1.22068459 6.67396561 -4.125 9.8125 C-4.84945313 10.60269531 -5.57390625 11.39289063 -6.3203125 12.20703125 C-6.87460937 12.79871094 -7.42890625 13.39039063 -8 14 C-9.32 13.67 -10.64 13.34 -12 13 C-8.49058007 8.81522779 -4.91806547 4.80612075 -1 1 C-0.67 0.67 -0.34 0.34 0 0 Z " fill="#8A8A8A" transform="translate(306,287)"/>
<path d="M0 0 C4.62898187 1.32256625 8.33443031 2.83428072 12 6 C13.08463588 8.69609489 13.51734435 11.1040661 14 14 C12 12.625 12 12.625 10 11 C10 10.34 10 9.68 10 9 C9.34 9 8.68 9 8 9 C8 8.34 8 7.68 8 7 C7.34 7 6.68 7 6 7 C6 6.34 6 5.68 6 5 C5.38125 4.731875 4.7625 4.46375 4.125 4.1875 C2 3 2 3 0 0 Z " fill="#939393" transform="translate(289,196)"/>
<path d="M0 0 C-2.739898 2.739898 -5.16819116 2.8900714 -8.9375 3.6875 C-10.18402344 3.95949219 -11.43054688 4.23148438 -12.71484375 4.51171875 C-16 5 -16 5 -19 4 C-18.67 3.34 -18.34 2.68 -18 2 C-14.98046875 1.11328125 -14.98046875 1.11328125 -11.1875 0.3125 C-9.94355469 0.04050781 -8.69960937 -0.23148438 -7.41796875 -0.51171875 C-4.41522875 -0.94068161 -2.7837478 -1.04478192 0 0 Z " fill="#686868" transform="translate(246,182)"/>
<path d="M0 0 C3.75345656 0.71971619 6.86091969 2.33112202 10.25 4.0625 C11.32765625 4.61035156 12.4053125 5.15820312 13.515625 5.72265625 C14.74539062 6.35494141 14.74539062 6.35494141 16 7 C13 8 13 8 9.8125 6.5625 C8.884375 6.046875 7.95625 5.53125 7 5 C6.67 5.66 6.34 6.32 6 7 C3.69 5.35 1.38 3.7 -1 2 C-0.67 1.34 -0.34 0.68 0 0 Z " fill="#909090" transform="translate(211,304)"/>
<path d="M0 0 C2.72426311 2.35277269 3.8141763 4.62496331 5 8 C4.34 8 3.68 8 3 8 C3.33 9.65 3.66 11.3 4 13 C2.02433812 11.02433812 1.10420928 9.47662906 -0.125 7 C-0.47820312 6.29875 -0.83140625 5.5975 -1.1953125 4.875 C-2 3 -2 3 -2 1 C-1.34 0.67 -0.68 0.34 0 0 Z " fill="#8C8C8C" transform="translate(308,213)"/>
<path d="M0 0 C2.90802461 2.21928194 4.95312762 3.92969143 7 7 C7 7.99 7 8.98 7 10 C5.1875 9.875 5.1875 9.875 3 9 C1.04679411 5.79116175 0 3.7794561 0 0 Z " fill="#767676" transform="translate(301,204)"/>
<path d="M0 0 C-1.17255709 3.33727786 -2.18868404 5.77437487 -5 8 C-5.66 8 -6.32 8 -7 8 C-6.65930765 4.84859577 -6.41923159 3.39218439 -4.0625 1.1875 C-2 0 -2 0 0 0 Z " fill="#787878" transform="translate(308,287)"/>
<path d="M0 0 C2.77398263 3.46747828 4.95912413 7.06402511 7 11 C6.67 11.66 6.34 12.32 6 13 C4.125 12.5 4.125 12.5 2 11 C0.58090489 7.38988442 0 3.8664592 0 0 Z " fill="#9E9E9E" transform="translate(189,275)"/>
<path d="M0 0 C2.91517292 1.07401108 4.77810176 1.77810176 7 4 C7 4.99 7 5.98 7 7 C4.20171644 6.61402985 3.1794116 6.19863427 1.25 4.0625 C0 2 0 2 0 0 Z " fill="#7A7A7A" transform="translate(192,286)"/>
<path d="M0 0 C2.3129482 2.3129482 2.49580975 3.47904875 3.125 6.625 C3.29257813 7.44226563 3.46015625 8.25953125 3.6328125 9.1015625 C3.81457031 10.04128906 3.81457031 10.04128906 4 11 C3.01 11 2.02 11 1 11 C0.63890458 9.35567294 0.28629924 7.7094792 -0.0625 6.0625 C-0.25972656 5.14597656 -0.45695313 4.22945313 -0.66015625 3.28515625 C-0.77230469 2.53105469 -0.88445312 1.77695312 -1 1 C-0.67 0.67 -0.34 0.34 0 0 Z " fill="#676767" transform="translate(183,260)"/>
<path d="M0 0 C0.99 0.33 1.98 0.66 3 1 C2.3125 3.375 2.3125 3.375 1 6 C-1.625 7.3125 -1.625 7.3125 -4 8 C-2.87548273 5.0280615 -1.77706209 2.66559313 0 0 Z " fill="#8D8D8D" transform="translate(308,281)"/>
<path d="M0 0 C-0.99 0.495 -0.99 0.495 -2 1 C-1.67 1.66 -1.34 2.32 -1 3 C-2.32 3.33 -3.64 3.66 -5 4 C-5 3.34 -5 2.68 -5 2 C-7.64 2.33 -10.28 2.66 -13 3 C-4.58823529 -1.52941176 -4.58823529 -1.52941176 0 0 Z " fill="#A2A2A2" transform="translate(276,312)"/>
<path d="M0 0 C2.97 0.99 5.94 1.98 9 3 C9 3.66 9 4.32 9 5 C5.26512223 4.5020163 3.18762365 4.12508244 0 2 C0 1.34 0 0.68 0 0 Z " fill="#666666" transform="translate(218,309)"/>
<path d="M0 0 C0.66 0 1.32 0 2 0 C0.60667426 3.36720387 -0.9789286 4.9859524 -4 7 C-4.66 6.67 -5.32 6.34 -6 6 C-4 4 -2 2 0 0 Z " fill="#646464" transform="translate(212,192)"/>
<path d="M0 0 C0.33 0.66 0.66 1.32 1 2 C0.06553465 4.03144641 -0.93224776 6.03533587 -2 8 C-2.66 8 -3.32 8 -4 8 C-3.50168276 4.31245243 -2.89932357 2.39509338 0 0 Z " fill="#676767" transform="translate(191,216)"/>
<path d="M0 0 C0.33 0.99 0.66 1.98 1 3 C-0.32 4.32 -1.64 5.64 -3 7 C-3.66 6.67 -4.32 6.34 -5 6 C-2.25 1.125 -2.25 1.125 0 0 Z " fill="#888888" transform="translate(217,189)"/>
<path d="M0 0 C5.75 0.875 5.75 0.875 8 2 C8 2.66 8 3.32 8 4 C2.25 3.125 2.25 3.125 0 2 C0 1.34 0 0.68 0 0 Z " fill="#686868" transform="translate(274,186)"/>
<path d="M0 0 C4.67692308 1.47692308 4.67692308 1.47692308 6.3125 4.125 C6.539375 4.74375 6.76625 5.3625 7 6 C4.50638429 4.79618552 2.31856917 3.54571278 0 2 C0 1.34 0 0.68 0 0 Z " fill="#636363" transform="translate(288,193)"/>
<path d="M0 0 C-0.33 0.99 -0.66 1.98 -1 3 C-2.98 3.33 -4.96 3.66 -7 4 C-6.67 3.01 -6.34 2.02 -6 1 C-3 0 -3 0 0 0 Z " fill="#707070" transform="translate(234,183)"/>
<path d="M0 0 C2.97 0.33 5.94 0.66 9 1 C5.5647952 3.29013653 4.014669 3.17842973 0 3 C0 2.01 0 1.02 0 0 Z " fill="#6D6D6D" transform="translate(256,181)"/>
</svg>
